<?xml version="1.0" encoding="us-ascii" standalone="no"?><svg xmlns="http://www.w3.org/2000/svg" xmlns:xlink="http://www.w3.org/1999/xlink" contentStyleType="text/css" height="546px" preserveAspectRatio="none" style="width:1300px;height:546px;background:#FFFFFF;" version="1.1" viewBox="0 0 1300 546" width="1300px" zoomAndPan="magnify"><defs/><g><ellipse cx="631.75" cy="20" fill="#222222" rx="10" ry="10" style="stroke:#222222;stroke-width:1.0;"/><rect fill="#F1F1F1" height="35.0938" rx="12.5" ry="12.5" style="stroke:#181818;stroke-width:0.5;" width="140" x="561.75" y="50"/><text fill="#000000" font-family="sans-serif" font-size="12" lengthAdjust="spacing" textLength="120" x="571.75" y="72.457">Display menu options</text><rect fill="#F1F1F1" height="35.0938" rx="12.5" ry="12.5" style="stroke:#181818;stroke-width:0.5;" width="108" x="577.75" y="149.0938"/><text fill="#000000" font-family="sans-serif" font-size="12" lengthAdjust="spacing" textLength="88" x="587.75" y="171.5508">Read user input</text><polygon fill="#F1F1F1" points="148.75,204.1875,246.75,204.1875,258.75,216.1875,246.75,228.1875,148.75,228.1875,136.75,216.1875,148.75,204.1875" style="stroke:#181818;stroke-width:0.5;"/><text fill="#000000" font-family="sans-serif" font-size="11" lengthAdjust="spacing" textLength="20" x="201.75" y="239.6064">Yes</text><text fill="#000000" font-family="sans-serif" font-size="11" lengthAdjust="spacing" textLength="98" x="148.75" y="220.6885">Add Product option?</text><rect fill="#F1F1F1" height="35.0938" rx="12.5" ry="12.5" style="stroke:#181818;stroke-width:0.5;" width="322" x="36.75" y="261.1064"/><text fill="#000000" font-family="sans-serif" font-size="12" lengthAdjust="spacing" textLength="302" x="46.75" y="283.5635">Read and validate user input (name, price and quantity)</text><polygon fill="#F1F1F1" points="140.75,330.665,254.75,330.665,266.75,342.665,254.75,354.665,140.75,354.665,128.75,342.665,140.75,330.665" style="stroke:#181818;stroke-width:0.5;"/><text fill="#000000" font-family="sans-serif" font-size="11" lengthAdjust="spacing" textLength="114" x="140.75" y="347.166">Product already exists?</text><text fill="#000000" font-family="sans-serif" font-size="11" lengthAdjust="spacing" textLength="20" x="108.75" y="340.248">Yes</text><rect fill="#F1F1F1" height="35.0938" rx="12.5" ry="12.5" style="stroke:#181818;stroke-width:0.5;" width="186" x="11" y="364.665"/><text fill="#000000" font-family="sans-serif" font-size="12" lengthAdjust="spacing" textLength="166" x="21" y="387.1221">Show error - Duplicate product</text><rect fill="#F1F1F1" height="35.0938" rx="12.5" ry="12.5" style="stroke:#181818;stroke-width:0.5;" width="149" x="217" y="364.665"/><text fill="#000000" font-family="sans-serif" font-size="12" lengthAdjust="spacing" textLength="129" x="227" y="387.1221">Add product to inventory</text><polygon fill="#F1F1F1" points="197.75,405.7588,209.75,417.7588,197.75,429.7588,185.75,417.7588,197.75,405.7588" style="stroke:#181818;stroke-width:0.5;"/><polygon fill="#F1F1F1" points="488,204.1875,605,204.1875,617,216.1875,605,228.1875,488,228.1875,476,216.1875,488,204.1875" style="stroke:#181818;stroke-width:0.5;"/><text fill="#000000" font-family="sans-serif" font-size="11" lengthAdjust="spacing" textLength="20" x="550.5" y="239.6064">Yes</text><text fill="#000000" font-family="sans-serif" font-size="11" lengthAdjust="spacing" textLength="117" x="488" y="220.6885">Remove Product option?</text><rect fill="#F1F1F1" height="35.0938" rx="12.5" ry="12.5" style="stroke:#181818;stroke-width:0.5;" width="333" x="380" y="261.1064"/><text fill="#000000" font-family="sans-serif" font-size="12" lengthAdjust="spacing" textLength="313" x="390" y="283.5635">Read and validate user input (product name and quantity)</text><polygon fill="#F1F1F1" points="453,330.665,640,330.665,652,342.665,640,354.665,453,354.665,441,342.665,453,330.665" style="stroke:#181818;stroke-width:0.5;"/><text fill="#000000" font-family="sans-serif" font-size="11" lengthAdjust="spacing" textLength="187" x="453" y="347.166">Product exists with specified quantity?</text><text fill="#000000" font-family="sans-serif" font-size="11" lengthAdjust="spacing" textLength="20" x="421" y="340.248">Yes</text><rect fill="#F1F1F1" height="35.0938" rx="12.5" ry="12.5" style="stroke:#181818;stroke-width:0.5;" width="110" x="376" y="364.665"/><text fill="#000000" font-family="sans-serif" font-size="12" lengthAdjust="spacing" textLength="90" x="386" y="387.1221">Remove product</text><rect fill="#F1F1F1" height="35.0938" rx="12.5" ry="12.5" style="stroke:#181818;stroke-width:0.5;" width="293" x="515.5" y="364.665"/><text fill="#000000" font-family="sans-serif" font-size="12" lengthAdjust="spacing" textLength="273" x="525.5" y="387.1221">Show error - Insufficient stock or product not found</text><polygon fill="#F1F1F1" points="546.5,405.7588,558.5,417.7588,546.5,429.7588,534.5,417.7588,546.5,405.7588" style="stroke:#181818;stroke-width:0.5;"/><polygon fill="#F1F1F1" points="890.5,204.1875,991.5,204.1875,1003.5,216.1875,991.5,228.1875,890.5,228.1875,878.5,216.1875,890.5,204.1875" style="stroke:#181818;stroke-width:0.5;"/><text fill="#000000" font-family="sans-serif" font-size="11" lengthAdjust="spacing" textLength="20" x="945" y="239.6064">Yes</text><text fill="#000000" font-family="sans-serif" font-size="11" lengthAdjust="spacing" textLength="101" x="890.5" y="220.6885">List Products option?</text><rect fill="#F1F1F1" height="35.0938" rx="12.5" ry="12.5" style="stroke:#181818;stroke-width:0.5;" width="245" x="818.5" y="261.1064"/><text fill="#000000" font-family="sans-serif" font-size="12" lengthAdjust="spacing" textLength="225" x="828.5" y="283.5635">Display product name, price, and quantity</text><rect fill="#F1F1F1" height="35.0938" rx="12.5" ry="12.5" style="stroke:#181818;stroke-width:0.5;" width="189" x="1073.5" y="323.7002"/><text fill="#000000" font-family="sans-serif" font-size="12" lengthAdjust="spacing" textLength="169" x="1083.5" y="346.1572">Show message - Invalid option</text><polygon fill="#F1F1F1" points="631.75,105.0938,643.75,117.0938,631.75,129.0938,619.75,117.0938,631.75,105.0938" style="stroke:#181818;stroke-width:0.5;"/><polygon fill="#F1F1F1" points="572.25,469.7588,691.25,469.7588,703.25,481.7588,691.25,493.7588,572.25,493.7588,560.25,481.7588,572.25,469.7588" style="stroke:#181818;stroke-width:0.5;"/><text fill="#000000" font-family="sans-serif" font-size="11" lengthAdjust="spacing" textLength="119" x="572.25" y="486.2598">User wants to continue?</text><ellipse cx="631.75" cy="524.7588" fill="none" rx="11" ry="11" style="stroke:#222222;stroke-width:1.0;"/><ellipse cx="631.75" cy="524.7588" fill="#222222" rx="6" ry="6" style="stroke:#222222;stroke-width:1.0;"/><line style="stroke:#181818;stroke-width:1.0;" x1="631.75" x2="631.75" y1="30" y2="50"/><polygon fill="#181818" points="627.75,40,631.75,50,635.75,40,631.75,44" style="stroke:#181818;stroke-width:1.0;"/><line style="stroke:#181818;stroke-width:1.0;" x1="128.75" x2="104" y1="342.665" y2="342.665"/><line style="stroke:#181818;stroke-width:1.0;" x1="104" x2="104" y1="342.665" y2="364.665"/><polygon fill="#181818" points="100,354.665,104,364.665,108,354.665,104,358.665" style="stroke:#181818;stroke-width:1.0;"/><line style="stroke:#181818;stroke-width:1.0;" x1="266.75" x2="291.5" y1="342.665" y2="342.665"/><line style="stroke:#181818;stroke-width:1.0;" x1="291.5" x2="291.5" y1="342.665" y2="364.665"/><polygon fill="#181818" points="287.5,354.665,291.5,364.665,295.5,354.665,291.5,358.665" style="stroke:#181818;stroke-width:1.0;"/><line style="stroke:#181818;stroke-width:1.0;" x1="104" x2="104" y1="399.7588" y2="417.7588"/><line style="stroke:#181818;stroke-width:1.0;" x1="104" x2="185.75" y1="417.7588" y2="417.7588"/><polygon fill="#181818" points="175.75,413.7588,185.75,417.7588,175.75,421.7588,179.75,417.7588" style="stroke:#181818;stroke-width:1.0;"/><line style="stroke:#181818;stroke-width:1.0;" x1="291.5" x2="291.5" y1="399.7588" y2="417.7588"/><line style="stroke:#181818;stroke-width:1.0;" x1="291.5" x2="209.75" y1="417.7588" y2="417.7588"/><polygon fill="#181818" points="219.75,413.7588,209.75,417.7588,219.75,421.7588,215.75,417.7588" style="stroke:#181818;stroke-width:1.0;"/><line style="stroke:#181818;stroke-width:1.0;" x1="197.75" x2="197.75" y1="296.2002" y2="330.665"/><polygon fill="#181818" points="193.75,320.665,197.75,330.665,201.75,320.665,197.75,324.665" style="stroke:#181818;stroke-width:1.0;"/><line style="stroke:#181818;stroke-width:1.0;" x1="441" x2="431" y1="342.665" y2="342.665"/><line style="stroke:#181818;stroke-width:1.0;" x1="431" x2="431" y1="342.665" y2="364.665"/><polygon fill="#181818" points="427,354.665,431,364.665,435,354.665,431,358.665" style="stroke:#181818;stroke-width:1.0;"/><line style="stroke:#181818;stroke-width:1.0;" x1="652" x2="662" y1="342.665" y2="342.665"/><line style="stroke:#181818;stroke-width:1.0;" x1="662" x2="662" y1="342.665" y2="364.665"/><polygon fill="#181818" points="658,354.665,662,364.665,666,354.665,662,358.665" style="stroke:#181818;stroke-width:1.0;"/><line style="stroke:#181818;stroke-width:1.0;" x1="431" x2="431" y1="399.7588" y2="417.7588"/><line style="stroke:#181818;stroke-width:1.0;" x1="431" x2="534.5" y1="417.7588" y2="417.7588"/><polygon fill="#181818" points="524.5,413.7588,534.5,417.7588,524.5,421.7588,528.5,417.7588" style="stroke:#181818;stroke-width:1.0;"/><line style="stroke:#181818;stroke-width:1.0;" x1="662" x2="662" y1="399.7588" y2="417.7588"/><line style="stroke:#181818;stroke-width:1.0;" x1="662" x2="558.5" y1="417.7588" y2="417.7588"/><polygon fill="#181818" points="568.5,413.7588,558.5,417.7588,568.5,421.7588,564.5,417.7588" style="stroke:#181818;stroke-width:1.0;"/><line style="stroke:#181818;stroke-width:1.0;" x1="546.5" x2="546.5" y1="296.2002" y2="330.665"/><polygon fill="#181818" points="542.5,320.665,546.5,330.665,550.5,320.665,546.5,324.665" style="stroke:#181818;stroke-width:1.0;"/><line style="stroke:#181818;stroke-width:1.0;" x1="197.75" x2="197.75" y1="228.1875" y2="261.1064"/><polygon fill="#181818" points="193.75,251.1064,197.75,261.1064,201.75,251.1064,197.75,255.1064" style="stroke:#181818;stroke-width:1.0;"/><line style="stroke:#181818;stroke-width:1.0;" x1="197.75" x2="197.75" y1="429.7588" y2="449.7588"/><polygon fill="#181818" points="193.75,439.7588,197.75,449.7588,201.75,439.7588,197.75,443.7588" style="stroke:#181818;stroke-width:1.0;"/><line style="stroke:#181818;stroke-width:1.0;" x1="546.5" x2="546.5" y1="228.1875" y2="261.1064"/><polygon fill="#181818" points="542.5,251.1064,546.5,261.1064,550.5,251.1064,546.5,255.1064" style="stroke:#181818;stroke-width:1.0;"/><line style="stroke:#181818;stroke-width:1.0;" x1="546.5" x2="546.5" y1="429.7588" y2="449.7588"/><polygon fill="#181818" points="542.5,439.7588,546.5,449.7588,550.5,439.7588,546.5,443.7588" style="stroke:#181818;stroke-width:1.0;"/><line style="stroke:#181818;stroke-width:1.0;" x1="941" x2="941" y1="228.1875" y2="261.1064"/><polygon fill="#181818" points="937,251.1064,941,261.1064,945,251.1064,941,255.1064" style="stroke:#181818;stroke-width:1.0;"/><line style="stroke:#181818;stroke-width:1.0;" x1="941" x2="941" y1="296.2002" y2="449.7588"/><polygon fill="#181818" points="937,439.7588,941,449.7588,945,439.7588,941,443.7588" style="stroke:#181818;stroke-width:1.0;"/><line style="stroke:#181818;stroke-width:1.0;" x1="258.75" x2="476" y1="216.1875" y2="216.1875"/><polygon fill="#181818" points="466,212.1875,476,216.1875,466,220.1875,470,216.1875" style="stroke:#181818;stroke-width:1.0;"/><line style="stroke:#181818;stroke-width:1.0;" x1="617" x2="878.5" y1="216.1875" y2="216.1875"/><polygon fill="#181818" points="868.5,212.1875,878.5,216.1875,868.5,220.1875,872.5,216.1875" style="stroke:#181818;stroke-width:1.0;"/><line style="stroke:#181818;stroke-width:1.0;" x1="631.75" x2="631.75" y1="184.1875" y2="189.1875"/><line style="stroke:#181818;stroke-width:1.0;" x1="631.75" x2="197.75" y1="189.1875" y2="189.1875"/><line style="stroke:#181818;stroke-width:1.0;" x1="197.75" x2="197.75" y1="189.1875" y2="204.1875"/><polygon fill="#181818" points="193.75,194.1875,197.75,204.1875,201.75,194.1875,197.75,198.1875" style="stroke:#181818;stroke-width:1.0;"/><line style="stroke:#181818;stroke-width:1.0;" x1="1003.5" x2="1168" y1="216.1875" y2="216.1875"/><line style="stroke:#181818;stroke-width:1.0;" x1="1168" x2="1168" y1="216.1875" y2="323.7002"/><polygon fill="#181818" points="1164,313.7002,1168,323.7002,1172,313.7002,1168,317.7002" style="stroke:#181818;stroke-width:1.0;"/><line style="stroke:#181818;stroke-width:1.0;" x1="1168" x2="1168" y1="358.7939" y2="449.7588"/><polygon fill="#181818" points="1164,439.7588,1168,449.7588,1172,439.7588,1168,443.7588" style="stroke:#181818;stroke-width:1.0;"/><line style="stroke:#181818;stroke-width:1.0;" x1="197.75" x2="1168" y1="449.7588" y2="449.7588"/><line style="stroke:#181818;stroke-width:1.0;" x1="631.75" x2="631.75" y1="129.0938" y2="149.0938"/><polygon fill="#181818" points="627.75,139.0938,631.75,149.0938,635.75,139.0938,631.75,143.0938" style="stroke:#181818;stroke-width:1.0;"/><line style="stroke:#181818;stroke-width:1.0;" x1="703.25" x2="1274.5" y1="481.7588" y2="481.7588"/><polygon fill="#181818" points="1270.5,316.2002,1274.5,306.2002,1278.5,316.2002,1274.5,312.2002" style="stroke:#181818;stroke-width:1.0;"/><line style="stroke:#181818;stroke-width:1.0;" x1="1274.5" x2="1274.5" y1="117.0938" y2="481.7588"/><line style="stroke:#181818;stroke-width:1.0;" x1="1274.5" x2="643.75" y1="117.0938" y2="117.0938"/><polygon fill="#181818" points="653.75,113.0938,643.75,117.0938,653.75,121.0938,649.75,117.0938" style="stroke:#181818;stroke-width:1.0;"/><line style="stroke:#181818;stroke-width:1.0;" x1="631.75" x2="631.75" y1="449.7588" y2="469.7588"/><polygon fill="#181818" points="627.75,459.7588,631.75,469.7588,635.75,459.7588,631.75,463.7588" style="stroke:#181818;stroke-width:1.0;"/><line style="stroke:#181818;stroke-width:1.0;" x1="631.75" x2="631.75" y1="85.0938" y2="105.0938"/><polygon fill="#181818" points="627.75,95.0938,631.75,105.0938,635.75,95.0938,631.75,99.0938" style="stroke:#181818;stroke-width:1.0;"/><line style="stroke:#181818;stroke-width:1.0;" x1="631.75" x2="631.75" y1="493.7588" y2="513.7588"/><polygon fill="#181818" points="627.75,503.7588,631.75,513.7588,635.75,503.7588,631.75,507.7588" style="stroke:#181818;stroke-width:1.0;"/><!--SRC=[fLAzJiCm4Dxz53ScKdc1PgYGkY0ne286Hik-a1E9RNpdXhmzpX-aeXK3g_tzsomwYbBx8t5ezG0TkWG-27d7bOeOK8i2s9zGMqYC4SY599NAXrH3SMyjF4Llav65TYX16dHGl2AN6RMIjRDmrYrPBRXHWiBf3dSG8XcSG1z9Eo4PocfYZowhWsvZbXe0Fuc5Vpjbh-V6zu0n-WXtS4oX9JCQXbbXbiIMSSMF1PPB49ypdT69ZyE2T9PgDJF682Vi_1d_stZr6vl_LNck2Zr90npGK4tuGxWwmHBoPkMBYHuSfxecGxasi7Zp3ldyEw4Ng7rozleSZpdREWRVNcFzNDlUoullBlfNQfDqpjaXitx3AUaqvc8pGQSuoo-5lg4MeNWPX-wp7e_lQNmMTWaFfShbmXS0]--></g></svg>